<svg xmlns="http://www.w3.org/2000/svg" viewBox="0 0 71 70">
  <defs>
    <filter id="filter0_d_19_210" x="0.872754" y="0.131572" width="69.2503" height="69.2503" filterUnits="userSpaceOnUse" color-interpolation-filters="sRGB">
      <feFlood flood-opacity="0" result="BackgroundImageFix"/>
      <feColorMatrix in="SourceAlpha" type="matrix" values="0 0 0 0 0 0 0 0 0 0 0 0 0 0 0 0 0 0 127 0" result="hardAlpha"/>
      <feOffset dy="3.35021"/>
      <feGaussianBlur stdDeviation="5.58368"/>
      <feComposite in2="hardAlpha" operator="out"/>
      <feColorMatrix type="matrix" values="0 0 0 0 0.168627 0 0 0 0 0.172549 0 0 0 0 0.203922 0 0 0 0.2 0"/>
      <feBlend mode="normal" in2="BackgroundImageFix" result="effect1_dropShadow_19_210"/>
      <feBlend mode="normal" in="SourceGraphic" in2="effect1_dropShadow_19_210" result="shape"/>
    </filter>
  </defs>
  
  <!-- Dark background circle -->
  <g opacity="0.8" filter="url(#filter0_d_19_210)">
    <circle cx="35.4979" cy="31.4065" r="23.4515" transform="rotate(-17.8082 35.4979 31.4065)" fill="#333333"/>
  </g>
  <path d="M61.8278 24.3278C65.7889 36.6591 59.0035 49.8667 46.6722 53.8278C34.3409 57.7889 21.1333 51.0035 17.1722 38.6722C13.2111 26.3409 19.9965 13.1333 32.3278 9.17217C44.6591 5.21109 57.8667 11.9965 61.8278 24.3278Z" fill="#333333"/>
  
  <!-- Diamond shape, adjusted position -->
  <g transform="translate(22.5, 17.5) scale(0.95)">
    <path d="M6.11 7.15274L12.7154 4.21328L19.7851 2.69995L27.3612 7.98614L19.7675 25.8713L3.09891 15.8862L6.11 7.15274Z" fill="#FDB300"/>
    <path d="M8.01261 14.2863L19.7675 25.8713L3.09889 15.8862L8.01261 14.2863Z" fill="#EA6C00"/>
    <path d="M22.4475 9.58605L19.7675 25.8712L27.3612 7.98608L22.4475 9.58605Z" fill="#EA6C00"/>
    <path d="M8.01263 14.2863L22.4475 9.58608L19.7675 25.8713L8.01263 14.2863Z" fill="#FDAD00"/>
    <path d="M12.7154 4.21327L6.10996 7.15273L8.01261 14.2863L12.7154 4.21327Z" fill="#FDD231"/>
    <path d="M12.7153 4.21337L19.7851 2.70003L22.4474 9.58619L12.7153 4.21337Z" fill="#FDD231"/>
    <path d="M27.3612 7.98617L19.7851 2.69999L22.4475 9.58614L27.3612 7.98617Z" fill="#FDAD00"/>
    <path d="M3.09887 15.8863L6.10995 7.15281L8.01259 14.2863L3.09887 15.8863Z" fill="#FDAD00"/>
    <path d="M12.7154 4.21327L8.01261 14.2863L22.4475 9.58609L12.7154 4.21327Z" fill="#FEEEB7"/>
  </g>
</svg>