<svg width="102" height="102" viewBox="0 0 102 102" fill="none" xmlns="http://www.w3.org/2000/svg">
<g opacity="0.7" filter="url(#filter0_d_9_2)">
<ellipse cx="51.1665" cy="45.8637" rx="34.1835" ry="34.1835" transform="matrix(0.952086 -0.305856 0.305805 0.952086 -11.5738 17.8471)" fill="#470137"/>
</g>
<path d="M89.5456 35.5457C95.3194 53.5202 85.4288 72.7719 67.4544 78.5457C49.4799 84.3195 30.2282 74.4289 24.4544 56.4545C18.6806 38.48 28.5712 19.2283 46.5456 13.4545C64.5201 7.68068 83.7718 17.5713 89.5456 35.5457Z" fill="#470137"/>
<path d="M55.2418 36.6069L52.9958 47.8525L62.501 55.4709C62.5652 55.5319 62.6109 55.5997 62.6192 55.6809C62.6276 55.7622 62.5329 55.7333 62.4278 55.7925L58.1624 57.3386C57.8643 57.4466 57.6527 57.5023 57.4548 57.3632C56.7801 56.7227 56.0935 56.1076 55.4187 55.467C54.7508 54.8451 54.0388 54.2181 53.3014 53.5792C52.5641 52.9403 51.8267 52.3014 51.0826 51.6439L51.0453 51.6574C50.9445 52.6001 50.8064 53.5563 50.6683 54.5126C50.5302 55.4688 50.3921 56.425 50.2659 57.3559C50.1211 58.2935 49.983 59.2497 49.8314 60.1687C49.8244 60.3819 49.6822 60.4546 49.4773 60.5289L45.3794 62.0142C45.3049 62.0412 45.2625 62.0987 45.2288 62.0056C45.1832 61.9378 45.1748 61.8566 45.1918 61.7872L47.5413 50.1879L38.4338 42.6782C38.351 42.624 38.3053 42.5562 38.3291 42.5055C38.3461 42.4361 38.4138 42.3905 38.4883 42.3634L42.7166 40.8308C42.8097 40.7971 42.9096 40.7819 42.9908 40.7736C43.0788 40.7838 43.155 40.8194 43.2379 40.8737C43.8821 41.5463 44.5822 42.1987 45.3009 42.8444C46.0383 43.4833 46.7503 44.1103 47.4995 44.7238C48.2301 45.3441 48.9235 45.9779 49.6049 46.6371L49.6422 46.6236C49.7363 45.6622 49.8557 44.7127 49.982 43.7819C50.1082 42.851 50.253 41.9134 50.3979 40.9758C50.5427 40.0382 50.6622 39.0887 50.7951 38.1765C50.7867 38.0953 50.797 38.0072 50.8394 37.9497C50.9004 37.8855 50.9681 37.8398 51.068 37.8247L54.9982 36.4001C55.0846 36.3477 55.198 36.3698 55.2504 36.4562C55.2757 36.4681 55.2655 36.5561 55.2418 36.6069Z" fill="#FF61F6"/>
<path d="M70.9702 53.1387C69.5986 53.657 68.119 53.8772 66.6617 53.7521C65.2924 53.6373 63.9998 53.0943 62.9309 52.2384C61.8298 51.352 60.9814 50.0579 60.367 48.3629C59.8488 46.9913 59.7098 45.5033 59.9669 44.0613C60.2358 42.5941 60.8957 41.2169 61.882 40.1007C62.9225 38.9017 64.3589 37.9806 66.2029 37.3122C66.296 37.2784 66.4264 37.2312 66.6008 37.1891C66.7752 37.1469 66.9615 37.0794 67.1918 37.017L65.0582 31.131C65.011 31.0006 65.0398 30.9059 65.1702 30.8586L68.9514 29.488C69.0378 29.4356 69.1393 29.4831 69.1849 29.5509C69.1917 29.5695 69.1984 29.5881 69.1984 29.5881L75.626 47.3206C75.7475 47.6559 75.9012 48.0217 76.0684 48.4247C76.2474 48.8024 76.4011 49.1681 76.5345 49.478C76.5817 49.6084 76.5664 49.7404 76.4562 49.8436C75.6362 50.6045 74.7198 51.2738 73.7442 51.8382C72.855 52.3502 71.9388 52.7876 70.9702 53.1387ZM71.4453 48.7517L68.4746 40.556C68.2934 40.5796 68.1123 40.6031 67.9379 40.6452C67.7262 40.7009 67.5146 40.7565 67.3097 40.8308C66.5833 41.0941 65.9109 41.5064 65.3805 42.078C64.8619 42.6242 64.4905 43.2857 64.2968 44.0302C64.1031 44.7748 64.1885 45.65 64.5396 46.6186C64.7573 47.2773 65.1053 47.8887 65.5517 48.4224C65.9202 48.8578 66.3617 49.2035 66.8692 49.441C67.3447 49.648 67.8676 49.7535 68.4059 49.727C68.9696 49.7123 69.5181 49.5978 70.0397 49.4087C70.3191 49.3075 70.5731 49.1943 70.8085 49.0879C71.0574 49.0188 71.2488 48.9073 71.4453 48.7517Z" fill="#FF61F6"/>
<defs>
<filter id="filter0_d_9_2" x="0.695927" y="0.276443" width="100.941" height="100.941" filterUnits="userSpaceOnUse" color-interpolation-filters="sRGB">
<feFlood flood-opacity="0" result="BackgroundImageFix"/>
<feColorMatrix in="SourceAlpha" type="matrix" values="0 0 0 0 0 0 0 0 0 0 0 0 0 0 0 0 0 0 127 0" result="hardAlpha"/>
<feOffset dy="4.88336"/>
<feGaussianBlur stdDeviation="8.13893"/>
<feComposite in2="hardAlpha" operator="out"/>
<feColorMatrix type="matrix" values="0 0 0 0 0.168627 0 0 0 0 0.172549 0 0 0 0 0.203922 0 0 0 0.2 0"/>
<feBlend mode="normal" in2="BackgroundImageFix" result="effect1_dropShadow_9_2"/>
<feBlend mode="normal" in="SourceGraphic" in2="effect1_dropShadow_9_2" result="shape"/>
</filter>
</defs>
</svg>
