<svg xmlns="http://www.w3.org/2000/svg" viewBox="0 0 102 102">
  <defs>
    <filter id="filter0_d_19_164" x="0.695927" y="0.276397" width="100.941" height="100.941" filterUnits="userSpaceOnUse" color-interpolation-filters="sRGB">
      <feFlood flood-opacity="0" result="BackgroundImageFix"/>
      <feColorMatrix in="SourceAlpha" type="matrix" values="0 0 0 0 0 0 0 0 0 0 0 0 0 0 0 0 0 0 127 0" result="hardAlpha"/>
      <feOffset dy="4.88336"/>
      <feGaussianBlur stdDeviation="8.13893"/>
      <feComposite in2="hardAlpha" operator="out"/>
      <feColorMatrix type="matrix" values="0 0 0 0 0.168627 0 0 0 0 0.172549 0 0 0 0 0.203922 0 0 0 0.2 0"/>
      <feBlend mode="normal" in2="BackgroundImageFix" result="effect1_dropShadow_19_164"/>
      <feBlend mode="normal" in="SourceGraphic" in2="effect1_dropShadow_19_164" result="shape"/>
    </filter>
  </defs>
  
  <!-- Purple background circle -->
  <g opacity="0.7" filter="url(#filter0_d_19_164)">
    <circle cx="51.1665" cy="45.8636" r="34.1835" transform="rotate(-17.8082 51.1665 45.8636)" fill="#470137"/>
  </g>
  <path d="M89.5456 35.5457C95.3194 53.5201 85.4288 72.7719 67.4544 78.5457C49.4799 84.3195 30.2282 74.4289 24.4544 56.4544C18.6806 38.48 28.5712 19.2282 46.5456 13.4544C64.5201 7.68065 83.7718 17.5712 89.5456 35.5457Z" fill="#470137"/>
  
  <!-- XD Logo, adjusted position -->
  <g transform="translate(33, 30) scale(0.95)">
    <path d="M18.2418 7.60692L15.9959 18.8526L25.501 26.471C25.5652 26.532 25.6109 26.5997 25.6192 26.681C25.6276 26.7622 25.5329 26.7334 25.4278 26.7925L21.1624 28.3386C20.8643 28.4467 20.6527 28.5023 20.4548 28.3633C19.7801 27.7228 19.0935 27.1076 18.4187 26.4671C17.7508 25.8452 17.0388 25.2182 16.3014 24.5792C15.5641 23.9403 14.8267 23.3014 14.0826 22.6439L14.0453 22.6574C13.9445 23.6001 13.8064 24.5564 13.6683 25.5126C13.5302 26.4688 13.3922 27.4251 13.2659 28.3559C13.1211 29.2935 12.983 30.2497 12.8314 31.1687C12.8244 31.382 12.6822 31.4546 12.4773 31.5289L8.37943 33.0143C8.30492 33.0413 8.26254 33.0988 8.22878 33.0056C8.18315 32.9379 8.17477 32.8566 8.19177 32.7873L10.5413 21.1879L1.43385 13.6783C1.35096 13.624 1.30533 13.5563 1.32908 13.5055C1.34608 13.4361 1.41383 13.3905 1.48834 13.3635L5.71657 11.8309C5.8097 11.7971 5.90958 11.782 5.99084 11.7736C6.07885 11.7838 6.15498 11.8195 6.23787 11.8737C6.8821 12.5464 7.5822 13.1988 8.30093 13.8444C9.03829 14.4833 9.75027 15.1104 10.4995 15.7239C11.2301 16.3442 11.9235 16.9779 12.6049 17.6371L12.6422 17.6236C12.7363 16.6622 12.8557 15.7128 12.982 14.7819C13.1082 13.8511 13.253 12.9135 13.3979 11.9759C13.5427 11.0383 13.6622 10.0888 13.7951 9.17656C13.7867 9.0953 13.797 9.00729 13.8394 8.94978C13.9004 8.88552 13.9681 8.83989 14.068 8.82476L17.9982 7.40016C18.0846 7.34777 18.198 7.3699 18.2504 7.45628C18.2757 7.46815 18.2655 7.55616 18.2418 7.60692Z" fill="#FF61F6"/>
    <path d="M33.9702 24.1387C32.5986 24.657 31.119 24.8772 29.6617 24.7521C28.2924 24.6373 26.9998 24.0943 25.9309 23.2384C24.8298 22.352 23.9814 21.0579 23.367 19.3629C22.8488 17.9913 22.7098 16.5033 22.9669 15.0614C23.2358 13.5941 23.8957 12.2169 24.882 11.1007C25.9225 9.90169 27.3589 8.98065 29.2029 8.31224C29.296 8.27848 29.4264 8.23122 29.6008 8.18908C29.7752 8.14694 29.9615 8.07943 30.1918 8.01703L28.0582 2.13104C28.011 2.00066 28.0398 1.90589 28.1702 1.85863L31.9514 0.488048C32.0378 0.435663 32.1393 0.483163 32.1849 0.550918C32.1917 0.569544 32.1984 0.588171 32.1984 0.588171L38.626 18.3207C38.7475 18.6559 38.9012 19.0217 39.0684 19.4247C39.2474 19.8024 39.4011 20.1682 39.5345 20.4781C39.5817 20.6085 39.5664 20.7405 39.4562 20.8436C38.6362 21.6045 37.7198 22.2739 36.7442 22.8382C35.855 23.3502 34.9388 23.7877 33.9702 24.1387ZM34.4453 19.7518L31.4746 11.5561C31.2934 11.5796 31.1123 11.6031 30.9379 11.6452C30.7262 11.7009 30.5146 11.7565 30.3097 11.8308C29.5833 12.0941 28.9109 12.5064 28.3805 13.078C27.8619 13.6242 27.4905 14.2857 27.2968 15.0303C27.1031 15.7749 27.1885 16.6501 27.5396 17.6186C27.7573 18.2773 28.1053 18.8888 28.5517 19.4224C28.9202 19.8578 29.3617 20.2036 29.8692 20.4411C30.3447 20.6481 30.8676 20.7535 31.4059 20.727C31.9696 20.7124 32.5181 20.5978 33.0397 20.4088C33.3191 20.3075 33.5731 20.1944 33.8085 20.088C34.0574 20.0188 34.2488 19.9073 34.4453 19.7518Z" fill="#FF61F6"/>
  </g>
</svg>